Coordinates
version=1
nRows=12
nColumns=46
inDegrees=yes

Units are S.I. units (second, meters, Newtons, ...)
Angles are in degrees.

endheader
time	pelvis_tilt	pelvis_list	pelvis_rotation	pelvis_tx	pelvis_ty	pelvis_tz	bb_angle	bb_tx	bb_ty	bb_tz	hip_flexion_r	hip_adduction_r	hip_rotation_r	knee_angle_r	knee_angle_r_beta	ankle_angle_r	subtalar_angle_r	mtp_angle_r	crank_angle_r	hip_flexion_l	hip_adduction_l	hip_rotation_l	knee_angle_l	knee_angle_l_beta	ankle_angle_l	subtalar_angle_l	mtp_angle_l	crank_angle_l	lumbar_extension	lumbar_bending	lumbar_rotation	arm_flex_r	arm_add_r	arm_rot_r	elbow_flex_r	pro_sup_r	wrist_flex_r	wrist_dev_r	arm_flex_l	arm_add_l	arm_rot_l	elbow_flex_l	pro_sup_l	wrist_flex_l	wrist_dev_l
      0.00500000	    -21.96389233	      2.02677048	      2.07889662	      0.10289173	      1.02923097	     -0.22942970	      0.00000000	      0.50000000	      0.00000000	      0.25000000	     55.52852854	     -6.31353683	      1.25211980	     66.16968140	      1.15487881	     13.64689247	     -5.40982377	      0.00000000	      0.00000000	     89.79170880	     -6.16475872	     -1.99774016	     79.36845097	      1.38524079	      8.12767907	     -3.79457858	      0.00000000	      0.00000000	    -51.73390201	     -3.18377068	     -3.43615633	     89.72800680	     -6.35292339	     18.17430285	     47.50308471	     25.86341302	      0.00000000	      0.00000000	     89.76285793	     -8.35528677	     20.30721523	     54.05569560	     26.19295967	      0.00000000	      0.00000000
      0.01000000	    -21.93739934	      1.98745344	      2.07475210	      0.10280042	      1.02918439	     -0.22945413	      0.00000000	      0.50000000	      0.00000000	      0.25000000	     55.50250489	     -6.28665764	      1.22401026	     66.17113787	      1.15490423	     13.64395268	     -5.43219286	      0.00000000	      0.00000000	     89.80133788	     -6.16279630	     -1.93229943	     79.39571536	      1.38571664	      8.11118294	     -3.76096070	      0.00000000	      0.00000000	    -51.72650542	     -3.13813159	     -3.33969077	     89.72581885	     -6.30875347	     17.66974047	     46.81900123	     29.47244810	      0.00000000	      0.00000000	     89.76538956	     -8.23171238	     20.07635626	     53.23646600	     29.63540197	      0.00000000	      0.00000000
      0.01500000	    -21.87929038	      2.00709225	      2.06762828	      0.10274023	      1.02922787	     -0.22943631	      0.00000000	      0.50000000	      0.00000000	      0.25000000	     55.44383530	     -6.30111886	      1.22923159	     66.17364778	      1.15494803	     13.68104150	     -5.36599556	      0.00000000	      0.00000000	     89.74231385	     -6.16802016	     -1.93477050	     79.40190280	      1.38582464	      8.11512858	     -3.72559698	      0.00000000	      0.00000000	    -51.79005715	     -3.16463606	     -3.29925548	     89.72655957	     -6.36398334	     17.58410055	     46.64336155	     30.50433559	      0.00000000	      0.00000000	     89.76567758	     -8.13344729	     19.93224808	     53.11018570	     30.56840559	      0.00000000	      0.00000000
      0.02000000	    -21.95431140	      2.04189342	      2.04354424	      0.10280977	      1.02924743	     -0.22937919	      0.00000000	      0.50000000	      0.00000000	      0.25000000	     55.51083690	     -6.30263058	      1.29128504	     66.16300348	      1.15476225	     13.71019034	     -5.33481731	      0.00000000	      0.00000000	     89.79696747	     -6.22641220	     -2.02255310	     79.39659780	      1.38573205	      8.10431948	     -3.68538645	      0.00000000	      0.00000000	    -51.71125994	     -3.23000057	     -3.33246789	     89.72598030	     -6.37133606	     17.51500178	     46.53198577	     31.28026677	      0.00000000	      0.00000000	     89.76552356	     -8.10571330	     19.87803925	     52.93939621	     31.25973894	      0.00000000	      0.00000000
      0.02500000	    -22.03132774	      2.00805022	      1.98763761	      0.10261749	      1.02926440	     -0.22925068	      0.00000000	      0.50000000	      0.00000000	      0.25000000	     55.60816696	     -6.23980128	      1.27783360	     66.15651499	      1.15464901	     13.70760263	     -5.34593900	      0.00000000	      0.00000000	     89.90995542	     -6.33477099	     -2.03485228	     79.41452264	      1.38604489	      8.10527642	     -3.65426022	      0.00000000	      0.00000000	    -51.56506869	     -3.22488465	     -3.26777745	     89.72511134	     -6.31177133	     17.61686025	     46.19804733	     32.15904953	      0.00000000	      0.00000000	     89.76520890	     -8.12871842	     19.92735680	     52.55382629	     32.05067379	      0.00000000	      0.00000000
      0.03000000	    -22.03921134	      2.06507551	      1.92905747	      0.10252802	      1.02920474	     -0.22917416	      0.00000000	      0.50000000	      0.00000000	      0.25000000	     55.65019118	     -6.22725868	      1.37958177	     66.17758944	      1.15501683	     13.72779441	     -5.31944201	      0.00000000	      0.00000000	     89.91612429	     -6.38081826	     -2.08564150	     79.42137742	      1.38616453	      8.08599448	     -3.69516765	      0.00000000	      0.00000000	    -51.54699413	     -3.31491119	     -3.26201724	     89.72537076	     -6.33082164	     17.60797416	     46.06219611	     32.80707454	      0.00000000	      0.00000000	     89.76584809	     -8.09698506	     19.99937960	     52.35772019	     32.59200820	      0.00000000	      0.00000000
      0.03500000	    -21.92989904	      2.08903312	      1.95583358	      0.10246592	      1.02945137	     -0.22915512	      0.00000000	      0.50000000	      0.00000000	      0.25000000	     55.51428245	     -6.26093299	      1.37547572	     66.14597890	      1.15446512	     13.77499529	     -5.42187349	      0.00000000	      0.00000000	     89.78499776	     -6.35330741	     -2.08892934	     79.39626786	      1.38572629	      8.02475236	     -3.57617975	      0.00000000	      0.00000000	    -51.70116354	     -3.34788869	     -3.21004437	     89.72423711	     -6.67101536	     18.55388752	     47.66836841	     25.29088171	      0.00000000	      0.00000000	     89.76564988	     -7.92434936	     20.45837591	     54.30028494	     22.82472459	      0.00000000	      0.00000000
      0.04000000	    -21.91739721	      2.09793577	      1.91719028	      0.10240566	      1.02939099	     -0.22910091	      0.00000000	      0.50000000	      0.00000000	      0.25000000	     55.52832291	     -6.24715833	      1.38763592	     66.15886727	      1.15469006	     13.75040346	     -5.25946295	      0.00000000	      0.00000000	     89.78441906	     -6.39550716	     -2.11799345	     79.42258366	      1.38618559	      8.12386772	     -3.66662188	      0.00000000	      0.00000000	    -51.67437534	     -3.35765980	     -3.17755478	     89.72426031	     -6.35518880	     17.48017667	     46.55659561	     30.54554889	      0.00000000	      0.00000000	     89.76709086	     -7.84230251	     20.00135200	     52.96451353	     29.19173922	      0.00000000	      0.00000000
      0.04500000	    -21.93399576	      2.05917640	      1.93682665	      0.10230051	      1.02926845	     -0.22916545	      0.00000000	      0.50000000	      0.00000000	      0.25000000	     55.56197355	     -6.23963634	      1.34466771	     66.18797806	      1.15519814	     13.72060130	     -5.29847216	      0.00000000	      0.00000000	     89.84466085	     -6.37530120	     -2.06702771	     79.45284955	      1.38671382	      8.11878477	     -3.60692050	      0.00000000	      0.00000000	    -51.62087118	     -3.30226226	     -3.11529584	     89.72359804	     -6.31677688	     17.13572778	     46.19270256	     32.46797144	      0.00000000	      0.00000000	     89.76816904	     -7.74703462	     19.80403942	     52.33821576	     31.58103723	      0.00000000	      0.00000000
      0.05000000	    -21.92270731	      2.06294390	      1.92658439	      0.10223094	      1.02925937	     -0.22914009	      0.00000000	      0.50000000	      0.00000000	      0.25000000	     55.56074142	     -6.23928891	      1.33493992	     66.18202910	      1.15509431	     13.66484898	     -5.39696839	      0.00000000	      0.00000000	     89.84298880	     -6.39577207	     -2.09838516	     79.45714480	      1.38678879	      8.05321268	     -3.73915049	      0.00000000	      0.00000000	    -51.61557925	     -3.28188669	     -3.13512368	     89.72453791	     -6.42205436	     17.55815865	     46.02507356	     33.09856496	      0.00000000	      0.00000000	     89.76806631	     -7.94014902	     19.92543028	     52.34459013	     32.26095364	      0.00000000	      0.00000000
      0.05500000	    -21.91361761	      2.10805312	      1.91542280	      0.10213549	      1.02923937	     -0.22904914	      0.00000000	      0.50000000	      0.00000000	      0.25000000	     55.57465840	     -6.25926022	      1.37566717	     66.20606285	      1.15551378	     13.71520258	     -5.29504677	      0.00000000	      0.00000000	     89.81859020	     -6.40654549	     -2.12932722	     79.44689207	      1.38660985	      8.10431975	     -3.63743076	      0.00000000	      0.00000000	    -51.60874940	     -3.34611542	     -3.19918902	     89.72496160	     -6.28447853	     17.30872684	     45.89007530	     33.80309537	      0.00000000	      0.00000000	     89.76846473	     -7.88943769	     19.84593006	     52.11010212	     33.09136719	      0.00000000	      0.00000000
      0.06000000	    -21.77939376	      2.10260152	      1.87699884	      0.10210522	      1.02943375	     -0.22898214	      0.00000000	      0.50000000	      0.00000000	      0.25000000	     55.42361497	     -6.21700782	      1.38999740	     66.17711840	      1.15500861	     13.68408987	     -5.36200585	      0.00000000	      0.00000000	     89.68742249	     -6.44321253	     -2.10051794	     79.48816231	      1.38733015	      8.10823145	     -3.66182342	      0.00000000	      0.00000000	    -51.80040662	     -3.35473728	     -3.10959478	     89.72484803	     -6.34882344	     17.12558848	     46.10801843	     34.06507217	      0.00000000	      0.00000000	     89.76823210	     -7.86278455	     19.58363261	     52.42638605	     33.38119011	      0.00000000	      0.00000000
